HIERARCHY
ROOT root
{
	OFFSET 0.000000 0.000000 0.000000
	CHANNELS 6 Xposition Yposition Zposition Zrotation Yrotation Xrotation
	JOINT lhip
	{
		OFFSET 0.058581 -0.082280 -0.017664
		CHANNELS 3 Zrotation Yrotation Xrotation
		JOINT lknee
		{
			OFFSET 0.043451 -0.386469 0.008037
			CHANNELS 3 Zrotation Yrotation Xrotation
			JOINT lankle
			{
				OFFSET -0.014790 -0.426874 -0.037428
				CHANNELS 3 Zrotation Yrotation Xrotation
				JOINT ltoe
				{
					OFFSET 0.041054 -0.060286 0.122042
					CHANNELS 3 Zrotation Yrotation Xrotation
					End Site
					{
						OFFSET 0.000000 0.000000 0.000000
					}
				}
			}
		}
	}
	JOINT rhip
	{
		OFFSET -0.060310 -0.090513 -0.013543
		CHANNELS 3 Zrotation Yrotation Xrotation
		JOINT rknee
		{
			OFFSET -0.043257 -0.383688 -0.004843
			CHANNELS 3 Zrotation Yrotation Xrotation
			JOINT rankle
			{
				OFFSET 0.019056 -0.420046 -0.034562
				CHANNELS 3 Zrotation Yrotation Xrotation
				JOINT rtoe
				{
					OFFSET -0.034840 -0.062106 0.130323
					CHANNELS 3 Zrotation Yrotation Xrotation
					End Site
					{
						OFFSET 0.000000 0.000000 0.000000
					}
				}
			}
		}
	}
	JOINT lowerback
	{
		OFFSET 0.004439 0.124404 -0.038385
		CHANNELS 3 Zrotation Yrotation Xrotation
		JOINT upperback
		{
			OFFSET 0.004488 0.137956 0.026820
			CHANNELS 3 Zrotation Yrotation Xrotation
			JOINT chest
			{
				OFFSET -0.002265 0.056032 0.002855
				CHANNELS 3 Zrotation Yrotation Xrotation
				JOINT lowerneck
				{
					OFFSET -0.013390 0.211636 -0.033468
					CHANNELS 3 Zrotation Yrotation Xrotation
					JOINT upperneck
					{
						OFFSET 0.010113 0.088937 0.050410
						CHANNELS 3 Zrotation Yrotation Xrotation
						End Site
						{
							OFFSET 0.000000 0.000000 0.000000
						}
					}
				}
				JOINT lclavicle
				{
					OFFSET 0.071702 0.114000 -0.018898
					CHANNELS 3 Zrotation Yrotation Xrotation
					JOINT lshoulder
					{
						OFFSET 0.122921 0.045205 -0.019046
						CHANNELS 3 Zrotation Yrotation Xrotation
						JOINT lelbow
						{
							OFFSET 0.255332 -0.015649 -0.022946
							CHANNELS 3 Zrotation Yrotation Xrotation
							JOINT lwrist
							{
								OFFSET 0.265709 0.012698 -0.007375
								CHANNELS 3 Zrotation Yrotation Xrotation
								End Site
								{
									OFFSET 0.000000 0.000000 0.000000
								}
							}
						}
					}
				}
				JOINT rclavicle
				{
					OFFSET -0.082954 0.112472 -0.023707
					CHANNELS 3 Zrotation Yrotation Xrotation
					JOINT rshoulder
					{
						OFFSET -0.113228 0.046853 -0.008472
						CHANNELS 3 Zrotation Yrotation Xrotation
						JOINT relbow
						{
							OFFSET -0.260127 -0.014369 -0.031269
							CHANNELS 3 Zrotation Yrotation Xrotation
							JOINT rwrist
							{
								OFFSET -0.269108 0.006794 -0.006027
								CHANNELS 3 Zrotation Yrotation Xrotation
								End Site
								{
									OFFSET 0.000000 0.000000 0.000000
								}
							}
						}
					}
				}
			}
		}
	}
}
MOTION
Frames: 10
Frame Time: 0.033333
-0.590681 0.798858 1.522103 94.671801 -1.573862 89.612111 1.085865 -4.737082 -11.577936 -1.143636 -14.318353 15.995201 -0.855243 4.719973 -10.265529 0.000000 -0.000000 0.000000 0.165874 -2.393493 -18.317607 -0.209272 -6.059842 37.066721 3.567258 -9.122650 -22.966825 0.000000 -0.000000 0.000000 -0.368355 0.794828 12.243836 0.711978 -0.316489 -0.170249 -1.578841 -0.443722 2.337653 2.115949 1.156232 2.635637 0.529443 -4.409995 16.549657 -23.586364 0.470732 3.471119 -45.115714 -7.088538 8.522069 9.468105 -51.989439 11.247240 -8.693754 -18.418896 -9.288103 21.998534 2.188611 2.651825 61.204147 -3.999226 7.348346 -20.411056 33.872304 -6.612103 19.697710 20.073321 -15.860718 
-0.579284 0.803055 1.523005 94.552689 -2.308763 89.490412 0.862156 -4.575810 -12.811097 -3.443610 -12.791730 19.008032 -1.119926 4.075598 -12.533904 0.000000 -0.000000 0.000000 -0.402336 -2.113032 -20.266334 -0.383861 -6.109475 38.494553 3.268893 -9.596955 -20.528277 0.000000 -0.000000 0.000000 -0.482104 0.732461 13.573232 0.715026 -0.305660 -0.366786 -1.506722 -0.526701 2.334688 1.652590 0.647195 2.174412 0.509043 -3.846796 15.941103 -24.030530 -0.423788 3.792363 -45.188352 -7.399497 8.553715 8.922306 -50.481767 11.594622 -7.418650 -18.164500 -7.879009 21.706840 3.339467 2.631939 61.130427 -2.980640 7.891749 -20.504060 32.090831 -7.104090 19.674869 19.548152 -15.374330 
-0.566857 0.806575 1.528852 95.502995 -2.474513 89.250425 0.052564 -4.535523 -14.960789 -6.331718 -11.542095 26.490565 -1.823140 2.607013 -15.366417 0.000000 -0.000000 0.000000 -0.468316 -2.498622 -20.729035 -1.012043 -6.274572 37.369195 3.170459 -9.304736 -16.949891 0.000000 -0.000000 0.000000 -0.297021 0.757660 14.674189 0.976735 -1.212543 -0.713727 -1.504277 -0.774258 2.499446 1.490115 0.738162 1.898574 0.572378 -3.654783 15.905075 -23.980978 -1.954471 3.622943 -45.280020 -7.571125 8.847409 7.487478 -48.417646 13.248834 -9.647127 -18.433636 -6.132042 21.319733 3.814747 2.098134 61.532141 -2.995182 8.257124 -20.846555 31.932294 -7.196859 19.939738 18.623551 -15.527630 
-0.553551 0.808979 1.535398 95.579813 -1.766018 89.557028 -0.415339 -4.571042 -17.376256 -9.309049 -8.717208 35.940701 -2.481826 0.636150 -18.211267 0.000000 -0.000000 0.000000 -0.019533 -2.095610 -21.421534 -1.346901 -7.122929 35.131939 3.508016 -8.384286 -11.604667 0.000000 -0.000000 0.000000 -0.034702 0.923263 15.254947 1.361605 -1.805423 -1.263560 -1.510203 -1.030809 2.619921 1.836390 1.164223 1.873731 0.821749 -3.227990 15.885696 -23.840921 -3.037817 3.344068 -45.090602 -7.713325 9.090190 6.635130 -47.237281 14.884485 -16.161851 -18.943250 -3.878443 21.457548 3.492409 1.854117 61.464879 -2.864206 8.587098 -20.658017 33.188415 -6.936615 21.507550 18.406913 -16.594327 
-0.539085 0.808789 1.540310 94.512680 -0.429933 89.933194 -0.186596 -4.773734 -17.811121 -10.528274 -5.113839 40.564997 -2.865839 0.255433 -19.512378 0.000000 -0.000000 0.000000 0.975803 -1.794303 -21.744556 -0.680744 -7.432106 31.911516 4.382854 -6.659416 -6.325911 0.000000 -0.000000 0.000000 -0.610113 1.453293 15.425820 2.025977 -2.119092 -1.002382 -1.040458 -1.230851 2.248557 2.451991 1.733341 1.845610 1.415525 -3.080775 15.346071 -23.499362 -3.540662 3.403454 -45.000995 -7.907497 9.005097 6.630268 -47.169222 15.324871 -21.728834 -18.948955 -2.644002 21.895158 3.051747 2.235372 61.274163 -2.204448 8.831965 -20.635429 35.060621 -6.237120 23.310571 18.636128 -16.920276 
-0.523325 0.806625 1.542483 92.972112 1.349390 90.401361 -0.024656 -4.173280 -15.513020 -7.798051 -4.089178 35.747854 -1.475468 3.754528 -22.399517 0.000000 -0.000000 0.000000 2.323806 -1.297015 -21.945558 0.419492 -7.647066 29.188791 6.109459 -5.037356 -4.430085 0.000000 -0.000000 0.000000 -1.521972 1.440001 15.091617 2.494033 -2.228527 -0.629388 -0.408681 -1.220222 1.854288 3.493375 2.884933 1.990426 1.836993 -3.056902 14.940826 -22.882827 -3.340563 3.614641 -44.720003 -7.956855 8.668573 6.787296 -47.705104 14.635782 -22.206502 -18.709730 -2.927431 22.413055 2.765536 2.762990 61.534168 -1.515517 9.469939 -20.952932 36.921674 -5.711692 22.763980 18.341692 -16.882953 
-0.507760 0.804737 1.541595 92.184466 2.994872 90.783143 0.025566 -3.386576 -13.567316 -4.792013 -5.558983 29.591991 0.743542 7.334526 -25.576640 0.000000 -0.000000 0.000000 3.128421 -1.029304 -22.420697 1.330853 -8.649059 28.557340 7.566275 -4.712086 -5.494010 0.000000 -0.000000 0.000000 -2.209958 0.691644 15.035853 2.639925 -2.574593 -0.987097 -0.043491 -1.308815 1.819285 4.328957 4.476943 1.901130 2.280804 -2.385544 15.269690 -21.818910 -3.321368 4.205409 -44.562856 -7.848582 8.242447 7.509958 -47.943308 13.383138 -19.902655 -18.857450 -5.328509 22.408996 2.580716 2.764004 62.760859 -1.176189 10.149969 -21.245824 38.009962 -4.920341 22.559286 19.486908 -17.400300 
-0.493964 0.803001 1.539252 92.340781 3.511619 90.990413 0.572863 -4.447630 -15.106761 -4.193459 -5.839401 29.918348 1.551748 8.805910 -24.631901 0.000000 -0.000000 0.000000 2.708889 -0.901659 -23.562412 2.052288 -8.452554 31.528871 7.539557 -4.645935 -7.413489 0.000000 -0.000000 0.000000 -3.414190 0.664988 15.371857 2.873078 -3.288752 -1.181282 -0.052427 -1.618630 2.082051 5.033696 5.559235 0.899741 2.680767 -2.875012 15.745375 -21.241009 -3.915428 3.957501 -43.703768 -8.541950 8.122445 8.241305 -46.935361 11.288298 -16.512232 -18.354026 -6.528609 22.924441 2.265902 2.142688 63.965025 -1.203637 10.882151 -22.183238 39.005811 -5.759369 21.801361 19.754582 -18.009384 
-0.480167 0.802560 1.537679 92.632909 3.300282 90.883348 1.534401 -5.054060 -17.420636 -4.960974 -4.986744 31.869841 1.785889 8.821046 -21.525996 0.000000 -0.000000 0.000000 1.708009 -0.655863 -24.482274 2.507485 -7.858245 37.552186 6.385447 -5.425500 -9.430443 0.000000 -0.000000 0.000000 -4.283024 1.034914 15.480056 2.832671 -3.499078 -0.734393 -0.440331 -1.775478 2.244304 4.998469 5.735746 0.692215 3.160781 -3.226004 15.565950 -21.299845 -4.952800 3.586038 -42.841805 -10.106844 8.061934 8.963091 -44.707491 9.103305 -10.647265 -17.473038 -6.064815 23.428679 2.414253 2.064438 64.893679 -1.601165 11.474269 -23.019857 39.551099 -7.246702 19.156248 20.323375 -19.194320 
-0.463823 0.803956 1.537978 92.865140 3.220232 90.460855 1.841366 -3.401955 -17.935332 -4.704689 -6.158840 31.511003 1.530966 7.476131 -18.286141 0.000000 -0.000000 0.000000 1.536988 -1.220598 -23.461490 2.074916 -7.368545 41.910768 5.494215 -5.877715 -10.551458 0.000000 -0.000000 0.000000 -4.148458 1.154435 15.564600 2.503339 -3.238641 -0.617989 -0.693627 -1.713956 2.449394 4.474282 5.253861 0.927295 3.299664 -2.937543 16.054631 -21.889348 -5.776971 2.865058 -43.273976 -11.147072 8.200864 10.179969 -42.438134 7.329971 -6.270759 -16.403813 -5.783526 23.249750 2.923775 1.667630 64.846119 -2.580112 11.674918 -21.825966 39.614017 -6.412685 17.654326 20.748709 -19.749146 
